<svg width="90" height="120" viewBox="0 0 90 120" fill="none" xmlns="http://www.w3.org/2000/svg">
<rect x="0.266113" width="89.4679" height="77.4956" rx="24" fill="#FC8F22"/>
<rect x="12.2661" y="17.426" width="15.9254" height="51.1288" rx="7.96268" transform="rotate(-19.9205 12.2661 17.426)" fill="white"/>
<rect x="32.6589" y="17.426" width="15.9254" height="51.1288" rx="7.96268" transform="rotate(-19.9205 32.6589 17.426)" fill="white"/>
<rect x="53.0518" y="17.426" width="15.9254" height="28.498" rx="7.96268" transform="rotate(-19.9205 53.0518 17.426)" fill="white"/>
<path d="M22.4674 103.776C21.8808 103.776 21.4208 103.616 21.0874 103.296C20.7674 102.962 20.6074 102.502 20.6074 101.916V91.5155C20.6074 90.9155 20.7674 90.4555 21.0874 90.1355C21.4074 89.8155 21.8608 89.6555 22.4474 89.6555C23.0474 89.6555 23.5008 89.8155 23.8074 90.1355C24.1274 90.4555 24.2874 90.9155 24.2874 91.5155V100.716H29.1674C29.6741 100.716 30.0608 100.849 30.3274 101.116C30.6074 101.369 30.7474 101.742 30.7474 102.236C30.7474 102.729 30.6074 103.109 30.3274 103.376C30.0608 103.642 29.6741 103.776 29.1674 103.776H22.4674Z" fill="white"/>
<path d="M32.9909 103.956C32.5775 103.956 32.2309 103.862 31.9509 103.676C31.6709 103.476 31.4975 103.209 31.4309 102.876C31.3642 102.529 31.4242 102.142 31.6109 101.716L36.5909 90.9955C36.8309 90.4755 37.1242 90.0955 37.4709 89.8555C37.8309 89.6155 38.2375 89.4955 38.6909 89.4955C39.1442 89.4955 39.5375 89.6155 39.8709 89.8555C40.2175 90.0955 40.5175 90.4755 40.7709 90.9955L45.7509 101.716C45.9642 102.142 46.0375 102.529 45.9709 102.876C45.9175 103.222 45.7509 103.489 45.4709 103.676C45.2042 103.862 44.8709 103.956 44.4709 103.956C43.9375 103.956 43.5242 103.836 43.2309 103.596C42.9509 103.356 42.6975 102.969 42.4709 102.436L41.3909 99.8955L42.7909 100.916H34.5509L35.9709 99.8955L34.8909 102.436C34.6509 102.969 34.4042 103.356 34.1509 103.596C33.8975 103.836 33.5109 103.956 32.9909 103.956ZM38.6509 93.5155L36.3309 99.0555L35.7709 98.0955H41.5909L41.0309 99.0555L38.6909 93.5155H38.6509Z" fill="white"/>
<path d="M51.6362 103.956C51.0495 103.956 50.5962 103.796 50.2762 103.476C49.9562 103.142 49.7962 102.669 49.7962 102.056V96.5755L50.5562 98.5955L45.9562 91.9755C45.7295 91.6555 45.6295 91.3022 45.6562 90.9155C45.6962 90.5155 45.8562 90.1822 46.1362 89.9155C46.4295 89.6355 46.8428 89.4955 47.3762 89.4955C47.7495 89.4955 48.0895 89.5889 48.3962 89.7755C48.7028 89.9489 48.9895 90.2489 49.2562 90.6755L52.0562 94.7955H51.3362L54.1362 90.6555C54.4162 90.2289 54.7028 89.9289 54.9962 89.7555C55.2895 89.5822 55.6362 89.4955 56.0362 89.4955C56.5428 89.4955 56.9362 89.6222 57.2162 89.8755C57.4962 90.1289 57.6428 90.4489 57.6562 90.8355C57.6828 91.2222 57.5628 91.6155 57.2962 92.0155L52.7362 98.5955L53.4762 96.5755V102.056C53.4762 103.322 52.8628 103.956 51.6362 103.956Z" fill="white"/>
<path d="M62.5024 103.776C61.8758 103.776 61.3958 103.616 61.0624 103.296C60.7424 102.962 60.5824 102.489 60.5824 101.876V91.5755C60.5824 90.9622 60.7424 90.4955 61.0624 90.1755C61.3958 89.8422 61.8758 89.6755 62.5024 89.6755H69.2824C69.7624 89.6755 70.1224 89.7955 70.3624 90.0355C70.6024 90.2755 70.7224 90.6222 70.7224 91.0755C70.7224 91.5422 70.6024 91.9022 70.3624 92.1555C70.1224 92.3955 69.7624 92.5155 69.2824 92.5155H64.1024V95.1955H68.8424C69.3091 95.1955 69.6624 95.3155 69.9024 95.5555C70.1558 95.7955 70.2824 96.1489 70.2824 96.6155C70.2824 97.0822 70.1558 97.4355 69.9024 97.6755C69.6624 97.9155 69.3091 98.0355 68.8424 98.0355H64.1024V100.936H69.2824C69.7624 100.936 70.1224 101.062 70.3624 101.316C70.6024 101.556 70.7224 101.902 70.7224 102.356C70.7224 102.822 70.6024 103.176 70.3624 103.416C70.1224 103.656 69.7624 103.776 69.2824 103.776H62.5024Z" fill="white"/>
<path d="M74.9076 103.956C74.3209 103.956 73.8676 103.796 73.5476 103.476C73.2276 103.142 73.0676 102.682 73.0676 102.096V91.5355C73.0676 90.9355 73.2276 90.4755 73.5476 90.1555C73.8809 89.8355 74.3409 89.6755 74.9276 89.6755H79.8476C81.4476 89.6755 82.6809 90.0689 83.5476 90.8555C84.4276 91.6289 84.8676 92.7089 84.8676 94.0955C84.8676 94.9889 84.6676 95.7689 84.2676 96.4355C83.8809 97.0889 83.3142 97.5955 82.5676 97.9555C81.8342 98.3022 80.9276 98.4755 79.8476 98.4755L80.0076 98.1155H80.9676C81.5409 98.1155 82.0476 98.2555 82.4876 98.5355C82.9276 98.8022 83.2942 99.2155 83.5876 99.7755L84.5876 101.576C84.8009 101.962 84.9009 102.342 84.8876 102.716C84.8742 103.076 84.7276 103.376 84.4476 103.616C84.1809 103.842 83.7876 103.956 83.2676 103.956C82.7476 103.956 82.3209 103.849 81.9876 103.636C81.6676 103.422 81.3809 103.089 81.1276 102.636L79.3076 99.2955C79.1476 99.0022 78.9409 98.8022 78.6876 98.6955C78.4476 98.5755 78.1676 98.5155 77.8476 98.5155H76.7476V102.096C76.7476 102.682 76.5942 103.142 76.2876 103.476C75.9809 103.796 75.5209 103.956 74.9076 103.956ZM76.7476 95.9155H79.1876C79.8942 95.9155 80.4342 95.7755 80.8076 95.4955C81.1809 95.2155 81.3676 94.7822 81.3676 94.1955C81.3676 93.6355 81.1809 93.2155 80.8076 92.9355C80.4342 92.6422 79.8942 92.4955 79.1876 92.4955H76.7476V95.9155Z" fill="white"/>
<path d="M7.3716 103.475C7.6916 103.795 8.14494 103.955 8.7316 103.955C9.34493 103.955 9.80493 103.795 10.1116 103.475C10.4183 103.142 10.5716 102.682 10.5716 102.095V98.9155H13.6716C15.2716 98.9155 16.5049 98.5088 17.3716 97.6955C18.2516 96.8688 18.6916 95.7355 18.6916 94.2955C18.6916 92.8555 18.2516 91.7288 17.3716 90.9155C16.5049 90.0888 15.2716 89.6755 13.6716 89.6755H8.7516H6.11133C5.55904 89.6755 5.11133 90.1232 5.11133 90.6755V91.4955C5.11133 92.0478 5.55904 92.4955 6.11133 92.4955H6.8916H10.5716H13.0316C13.7249 92.4955 14.2583 92.6421 14.6316 92.9355C15.0049 93.2288 15.1916 93.6821 15.1916 94.2955C15.1916 94.8955 15.0049 95.3488 14.6316 95.6555C14.2583 95.9488 13.7249 96.0955 13.0316 96.0955H10.5716L10.5939 94.7971C10.6035 94.2382 10.153 93.78 9.59402 93.78H7.8916C7.33932 93.78 6.8916 94.2277 6.8916 94.78V102.095C6.8916 102.682 7.0516 103.142 7.3716 103.475Z" fill="white"/>
<path d="M7.3716 103.475C7.6916 103.795 8.14494 103.955 8.7316 103.955C9.34493 103.955 9.80493 103.795 10.1116 103.475C10.4183 103.142 10.5716 102.682 10.5716 102.095V98.9155H13.6716C15.2716 98.9155 16.5049 98.5088 17.3716 97.6955C18.2516 96.8688 18.6916 95.7355 18.6916 94.2955C18.6916 92.8555 18.2516 91.7288 17.3716 90.9155C16.5049 90.0888 15.2716 89.6755 13.6716 89.6755H8.7516H6.11133C5.55904 89.6755 5.11133 90.1232 5.11133 90.6755V91.4955C5.11133 92.0478 5.55904 92.4955 6.11133 92.4955H6.8916H10.5716H13.0316C13.7249 92.4955 14.2583 92.6421 14.6316 92.9355C15.0049 93.2288 15.1916 93.6821 15.1916 94.2955C15.1916 94.8955 15.0049 95.3488 14.6316 95.6555C14.2583 95.9488 13.7249 96.0955 13.0316 96.0955H10.5716L10.5939 94.7971C10.6035 94.2382 10.153 93.78 9.59402 93.78H7.8916C7.33932 93.78 6.8916 94.2277 6.8916 94.78V102.095C6.8916 102.682 7.0516 103.142 7.3716 103.475Z" fill="white"/>
<path d="M13.0313 96.0955H10.5713V92.4955H13.0313C13.7246 92.4955 14.258 92.6422 14.6313 92.9355C15.0046 93.2289 15.1913 93.6822 15.1913 94.2955C15.1913 94.8955 15.0046 95.3489 14.6313 95.6555C14.258 95.9489 13.7246 96.0955 13.0313 96.0955Z" fill="white"/>
<path d="M13.0313 96.0955H10.5713V92.4955H13.0313C13.7246 92.4955 14.258 92.6422 14.6313 92.9355C15.0046 93.2289 15.1913 93.6822 15.1913 94.2955C15.1913 94.8955 15.0046 95.3489 14.6313 95.6555C14.258 95.9489 13.7246 96.0955 13.0313 96.0955Z" fill="#1E1E1E"/>
<path d="M12.08 117.016C12.0133 117.016 11.96 116.996 11.92 116.956C11.8867 116.916 11.87 116.862 11.87 116.796V112.276C11.87 112.202 11.8867 112.149 11.92 112.116C11.96 112.076 12.0133 112.056 12.08 112.056C12.1467 112.056 12.1967 112.076 12.23 112.116C12.2633 112.149 12.28 112.202 12.28 112.276V113.296H12.17C12.29 112.882 12.4933 112.569 12.78 112.356C13.0667 112.142 13.4133 112.036 13.82 112.036C14.2533 112.036 14.5967 112.142 14.85 112.356C15.11 112.562 15.2767 112.879 15.35 113.306H15.2C15.3067 112.919 15.5133 112.612 15.82 112.386C16.1333 112.152 16.5067 112.036 16.94 112.036C17.2933 112.036 17.5867 112.106 17.82 112.246C18.0533 112.379 18.23 112.582 18.35 112.856C18.47 113.122 18.53 113.462 18.53 113.876V116.796C18.53 116.862 18.51 116.916 18.47 116.956C18.4367 116.996 18.3867 117.016 18.32 117.016C18.2533 117.016 18.2 116.996 18.16 116.956C18.1267 116.916 18.11 116.862 18.11 116.796V113.916C18.11 113.402 18.0167 113.026 17.83 112.786C17.65 112.546 17.3467 112.426 16.92 112.426C16.46 112.426 16.0933 112.586 15.82 112.906C15.5467 113.219 15.41 113.642 15.41 114.176V116.796C15.41 116.862 15.39 116.916 15.35 116.956C15.3167 116.996 15.2667 117.016 15.2 117.016C15.1333 117.016 15.08 116.996 15.04 116.956C15.0067 116.916 14.99 116.862 14.99 116.796V113.916C14.99 113.402 14.8967 113.026 14.71 112.786C14.53 112.546 14.2267 112.426 13.8 112.426C13.34 112.426 12.9733 112.586 12.7 112.906C12.4267 113.219 12.29 113.642 12.29 114.176V116.796C12.29 116.942 12.22 117.016 12.08 117.016ZM23.1189 117.036C22.7389 117.036 22.4222 116.966 22.1689 116.826C21.9156 116.686 21.7256 116.479 21.5989 116.206C21.4722 115.932 21.4089 115.592 21.4089 115.186V112.276C21.4089 112.202 21.4256 112.149 21.4589 112.116C21.4989 112.076 21.5522 112.056 21.6189 112.056C21.6856 112.056 21.7356 112.076 21.7689 112.116C21.8089 112.149 21.8289 112.202 21.8289 112.276V115.146C21.8289 115.652 21.9322 116.029 22.1389 116.276C22.3456 116.522 22.6722 116.646 23.1189 116.646C23.6056 116.646 23.9989 116.486 24.2989 116.166C24.6056 115.839 24.7589 115.412 24.7589 114.886V112.276C24.7589 112.202 24.7756 112.149 24.8089 112.116C24.8489 112.076 24.9022 112.056 24.9689 112.056C25.0356 112.056 25.0856 112.076 25.1189 112.116C25.1589 112.149 25.1789 112.202 25.1789 112.276V116.796C25.1789 116.942 25.1122 117.016 24.9789 117.016C24.9122 117.016 24.8589 116.996 24.8189 116.956C24.7856 116.916 24.7689 116.862 24.7689 116.796V115.746H24.8889C24.7622 116.166 24.5389 116.486 24.2189 116.706C23.8989 116.926 23.5322 117.036 23.1189 117.036ZM29.5881 117.036C29.2815 117.036 28.9848 116.992 28.6981 116.906C28.4115 116.819 28.1315 116.672 27.8581 116.466C27.8248 116.439 27.8015 116.406 27.7881 116.366C27.7815 116.326 27.7815 116.286 27.7881 116.246C27.8015 116.206 27.8215 116.172 27.8481 116.146C27.8815 116.112 27.9181 116.096 27.9581 116.096C28.0048 116.096 28.0515 116.112 28.0981 116.146C28.3515 116.332 28.6048 116.462 28.8581 116.536C29.1115 116.609 29.3648 116.646 29.6181 116.646C30.0515 116.646 30.3815 116.562 30.6081 116.396C30.8415 116.229 30.9581 116.002 30.9581 115.716C30.9581 115.489 30.8815 115.312 30.7281 115.186C30.5815 115.052 30.3415 114.946 30.0081 114.866L29.1781 114.666C28.7581 114.566 28.4481 114.412 28.2481 114.206C28.0548 113.999 27.9581 113.732 27.9581 113.406C27.9581 113.132 28.0281 112.892 28.1681 112.686C28.3148 112.479 28.5181 112.319 28.7781 112.206C29.0448 112.092 29.3515 112.036 29.6981 112.036C29.9915 112.036 30.2715 112.082 30.5381 112.176C30.8115 112.269 31.0415 112.409 31.2281 112.596C31.2681 112.636 31.2915 112.679 31.2981 112.726C31.3115 112.766 31.3115 112.806 31.2981 112.846C31.2848 112.886 31.2615 112.916 31.2281 112.936C31.1948 112.956 31.1548 112.966 31.1081 112.966C31.0681 112.959 31.0248 112.936 30.9781 112.896C30.7915 112.736 30.5881 112.619 30.3681 112.546C30.1481 112.466 29.9215 112.426 29.6881 112.426C29.2815 112.426 28.9648 112.516 28.7381 112.696C28.5115 112.869 28.3981 113.102 28.3981 113.396C28.3981 113.622 28.4681 113.806 28.6081 113.946C28.7481 114.086 28.9715 114.192 29.2781 114.266L30.1081 114.466C30.5415 114.572 30.8648 114.722 31.0781 114.916C31.2915 115.109 31.3981 115.369 31.3981 115.696C31.3981 116.102 31.2348 116.429 30.9081 116.676C30.5815 116.916 30.1415 117.036 29.5881 117.036ZM34.2342 116.986C34.1676 116.986 34.1142 116.966 34.0742 116.926C34.0409 116.886 34.0242 116.832 34.0242 116.766V112.306C34.0242 112.232 34.0409 112.179 34.0742 112.146C34.1142 112.106 34.1676 112.086 34.2342 112.086C34.3009 112.086 34.3509 112.106 34.3842 112.146C34.4242 112.179 34.4442 112.232 34.4442 112.306V116.766C34.4442 116.832 34.4276 116.886 34.3942 116.926C34.3609 116.966 34.3076 116.986 34.2342 116.986ZM34.2342 110.796C34.1276 110.796 34.0409 110.766 33.9742 110.706C33.9142 110.639 33.8842 110.552 33.8842 110.446C33.8842 110.332 33.9142 110.249 33.9742 110.196C34.0409 110.136 34.1276 110.106 34.2342 110.106C34.3476 110.106 34.4342 110.136 34.4942 110.196C34.5542 110.249 34.5842 110.332 34.5842 110.446C34.5842 110.552 34.5542 110.639 34.4942 110.706C34.4342 110.766 34.3476 110.796 34.2342 110.796ZM39.2334 117.036C38.7734 117.036 38.3767 116.929 38.0434 116.716C37.7167 116.502 37.4634 116.206 37.2834 115.826C37.11 115.446 37.0234 115.002 37.0234 114.496C37.0234 114.116 37.0734 113.776 37.1734 113.476C37.2734 113.169 37.4167 112.909 37.6034 112.696C37.7967 112.482 38.03 112.319 38.3034 112.206C38.5767 112.092 38.8867 112.036 39.2334 112.036C39.4867 112.036 39.7434 112.082 40.0034 112.176C40.27 112.262 40.5067 112.409 40.7134 112.616C40.7467 112.649 40.7634 112.686 40.7634 112.726C40.77 112.766 40.7634 112.806 40.7434 112.846C40.73 112.879 40.7067 112.906 40.6734 112.926C40.64 112.946 40.6 112.956 40.5534 112.956C40.5067 112.949 40.46 112.922 40.4134 112.876C40.22 112.702 40.02 112.586 39.8134 112.526C39.6134 112.459 39.4167 112.426 39.2234 112.426C38.9367 112.426 38.6834 112.472 38.4634 112.566C38.2434 112.659 38.0567 112.796 37.9034 112.976C37.7567 113.149 37.6434 113.366 37.5634 113.626C37.49 113.879 37.4534 114.172 37.4534 114.506C37.4534 115.172 37.6067 115.696 37.9134 116.076C38.22 116.456 38.6567 116.646 39.2234 116.646C39.4167 116.646 39.6134 116.616 39.8134 116.556C40.02 116.489 40.22 116.369 40.4134 116.196C40.46 116.149 40.5067 116.126 40.5534 116.126C40.6 116.119 40.64 116.126 40.6734 116.146C40.7067 116.166 40.73 116.196 40.7434 116.236C40.7634 116.269 40.77 116.306 40.7634 116.346C40.7634 116.386 40.7467 116.422 40.7134 116.456C40.5067 116.662 40.27 116.812 40.0034 116.906C39.7434 116.992 39.4867 117.036 39.2334 117.036ZM46.9651 118.816C46.8984 118.816 46.8451 118.796 46.8051 118.756C46.7717 118.716 46.7551 118.662 46.7551 118.596V112.276C46.7551 112.202 46.7717 112.149 46.8051 112.116C46.8451 112.076 46.8984 112.056 46.9651 112.056C47.0317 112.056 47.0817 112.076 47.1151 112.116C47.1551 112.149 47.1751 112.202 47.1751 112.276V113.376H47.0651C47.1784 112.962 47.3951 112.636 47.7151 112.396C48.0417 112.156 48.4384 112.036 48.9051 112.036C49.3451 112.036 49.7251 112.139 50.0451 112.346C50.3651 112.546 50.6117 112.832 50.7851 113.206C50.9651 113.579 51.0551 114.022 51.0551 114.536C51.0551 115.042 50.9684 115.486 50.7951 115.866C50.6217 116.239 50.3717 116.529 50.0451 116.736C49.7251 116.936 49.3451 117.036 48.9051 117.036C48.4384 117.036 48.0417 116.916 47.7151 116.676C47.3951 116.429 47.1784 116.102 47.0651 115.696H47.1751V118.596C47.1751 118.662 47.1551 118.716 47.1151 118.756C47.0817 118.796 47.0317 118.816 46.9651 118.816ZM48.8951 116.646C49.2484 116.646 49.5551 116.562 49.8151 116.396C50.0751 116.229 50.2751 115.989 50.4151 115.676C50.5551 115.356 50.6251 114.976 50.6251 114.536C50.6251 113.869 50.4684 113.352 50.1551 112.986C49.8484 112.612 49.4284 112.426 48.8951 112.426C48.5417 112.426 48.2351 112.509 47.9751 112.676C47.7151 112.842 47.5151 113.082 47.3751 113.396C47.2351 113.709 47.1651 114.089 47.1651 114.536C47.1651 115.202 47.3217 115.722 47.6351 116.096C47.9484 116.462 48.3684 116.646 48.8951 116.646ZM54.9587 117.036C54.5387 117.036 54.212 116.902 53.9787 116.636C53.752 116.362 53.6387 115.982 53.6387 115.496V110.066C53.6387 109.992 53.6553 109.939 53.6887 109.906C53.7287 109.866 53.782 109.846 53.8487 109.846C53.9153 109.846 53.9653 109.866 53.9987 109.906C54.0387 109.939 54.0587 109.992 54.0587 110.066V115.426C54.0587 115.832 54.1387 116.139 54.2987 116.346C54.4587 116.546 54.692 116.646 54.9987 116.646C55.0653 116.646 55.122 116.642 55.1687 116.636C55.2153 116.629 55.262 116.626 55.3087 116.626C55.362 116.626 55.402 116.636 55.4287 116.656C55.462 116.676 55.4787 116.716 55.4787 116.776C55.4787 116.849 55.4587 116.902 55.4187 116.936C55.3787 116.969 55.312 116.996 55.2187 117.016C55.172 117.022 55.1253 117.026 55.0787 117.026C55.0387 117.032 54.9987 117.036 54.9587 117.036ZM59.0526 117.036C58.7392 117.036 58.4559 116.972 58.2026 116.846C57.9492 116.719 57.7492 116.549 57.6026 116.336C57.4559 116.116 57.3826 115.872 57.3826 115.606C57.3826 115.246 57.4692 114.966 57.6426 114.766C57.8226 114.559 58.1259 114.416 58.5526 114.336C58.9859 114.249 59.5792 114.206 60.3326 114.206H60.7426V114.576H60.3526C59.6926 114.576 59.1792 114.606 58.8126 114.666C58.4526 114.719 58.1992 114.819 58.0526 114.966C57.9126 115.106 57.8426 115.306 57.8426 115.566C57.8426 115.886 57.9526 116.149 58.1726 116.356C58.3992 116.556 58.7026 116.656 59.0826 116.656C59.3892 116.656 59.6559 116.582 59.8826 116.436C60.1159 116.282 60.2992 116.079 60.4326 115.826C60.5659 115.566 60.6326 115.272 60.6326 114.946V113.806C60.6326 113.326 60.5392 112.976 60.3526 112.756C60.1659 112.536 59.8659 112.426 59.4526 112.426C59.1859 112.426 58.9292 112.462 58.6826 112.536C58.4426 112.609 58.1892 112.722 57.9226 112.876C57.8626 112.909 57.8092 112.922 57.7626 112.916C57.7226 112.909 57.6892 112.892 57.6626 112.866C57.6359 112.832 57.6159 112.796 57.6026 112.756C57.5959 112.709 57.5992 112.666 57.6126 112.626C57.6326 112.586 57.6659 112.552 57.7126 112.526C57.9859 112.359 58.2692 112.236 58.5626 112.156C58.8559 112.076 59.1459 112.036 59.4326 112.036C59.7992 112.036 60.1026 112.099 60.3426 112.226C60.5826 112.352 60.7592 112.546 60.8726 112.806C60.9926 113.066 61.0526 113.399 61.0526 113.806V116.796C61.0526 116.862 61.0359 116.916 61.0026 116.956C60.9692 116.996 60.9192 117.016 60.8526 117.016C60.7859 117.016 60.7326 116.996 60.6926 116.956C60.6592 116.916 60.6426 116.862 60.6426 116.796V115.746H60.7526C60.6859 116.012 60.5726 116.242 60.4126 116.436C60.2526 116.629 60.0559 116.779 59.8226 116.886C59.5959 116.986 59.3392 117.036 59.0526 117.036ZM64.8305 118.816C64.7705 118.816 64.7238 118.799 64.6905 118.766C64.6571 118.732 64.6405 118.689 64.6405 118.636C64.6405 118.582 64.6505 118.529 64.6705 118.476L65.3605 116.886V117.086L63.3605 112.406C63.3338 112.339 63.3238 112.282 63.3305 112.236C63.3371 112.182 63.3571 112.139 63.3905 112.106C63.4305 112.072 63.4838 112.056 63.5505 112.056C63.6105 112.056 63.6538 112.072 63.6805 112.106C63.7138 112.132 63.7438 112.172 63.7705 112.226L65.6705 116.816H65.4305L67.3405 112.226C67.3671 112.166 67.3938 112.122 67.4205 112.096C67.4538 112.069 67.5038 112.056 67.5705 112.056C67.6371 112.056 67.6838 112.072 67.7105 112.106C67.7438 112.139 67.7605 112.182 67.7605 112.236C67.7671 112.282 67.7571 112.336 67.7305 112.396L65.0705 118.636C65.0438 118.702 65.0138 118.749 64.9805 118.776C64.9471 118.802 64.8971 118.816 64.8305 118.816ZM72.0807 117.036C71.6007 117.036 71.1874 116.936 70.8407 116.736C70.494 116.536 70.224 116.252 70.0307 115.886C69.844 115.512 69.7507 115.069 69.7507 114.556C69.7507 114.049 69.844 113.609 70.0307 113.236C70.224 112.856 70.4874 112.562 70.8207 112.356C71.1607 112.142 71.5507 112.036 71.9907 112.036C72.304 112.036 72.5807 112.089 72.8207 112.196C73.0674 112.302 73.274 112.456 73.4407 112.656C73.614 112.856 73.744 113.099 73.8307 113.386C73.924 113.672 73.9707 113.996 73.9707 114.356C73.9707 114.442 73.9507 114.509 73.9107 114.556C73.8774 114.596 73.824 114.616 73.7507 114.616H70.0207V114.246H73.7507L73.5807 114.366C73.5807 113.959 73.5207 113.612 73.4007 113.326C73.2807 113.032 73.1007 112.809 72.8607 112.656C72.6274 112.496 72.334 112.416 71.9807 112.416C71.594 112.416 71.264 112.509 70.9907 112.696C70.724 112.876 70.5207 113.122 70.3807 113.436C70.2474 113.749 70.1807 114.106 70.1807 114.506V114.556C70.1807 115.222 70.344 115.739 70.6707 116.106C71.004 116.466 71.4674 116.646 72.0607 116.646C72.3274 116.646 72.5774 116.612 72.8107 116.546C73.044 116.472 73.274 116.346 73.5007 116.166C73.5474 116.126 73.594 116.106 73.6407 116.106C73.694 116.099 73.7374 116.109 73.7707 116.136C73.8107 116.156 73.8374 116.186 73.8507 116.226C73.8707 116.259 73.874 116.299 73.8607 116.346C73.8474 116.392 73.814 116.436 73.7607 116.476C73.554 116.649 73.3007 116.786 73.0007 116.886C72.7007 116.986 72.394 117.036 72.0807 117.036ZM76.7151 117.016C76.6484 117.016 76.5951 116.996 76.5551 116.956C76.5217 116.916 76.5051 116.862 76.5051 116.796V112.276C76.5051 112.202 76.5217 112.149 76.5551 112.116C76.5951 112.076 76.6484 112.056 76.7151 112.056C76.7817 112.056 76.8317 112.076 76.8651 112.116C76.8984 112.149 76.9151 112.202 76.9151 112.276V113.246H76.8151C76.9417 112.852 77.1651 112.549 77.4851 112.336C77.8117 112.122 78.1884 112.016 78.6151 112.016C78.6751 112.016 78.7251 112.029 78.7651 112.056C78.8117 112.076 78.8351 112.119 78.8351 112.186C78.8351 112.252 78.8184 112.306 78.7851 112.346C78.7517 112.379 78.6951 112.399 78.6151 112.406L78.4951 112.416C78.0017 112.462 77.6151 112.629 77.3351 112.916C77.0617 113.202 76.9251 113.582 76.9251 114.056V116.796C76.9251 116.862 76.9084 116.916 76.8751 116.956C76.8417 116.996 76.7884 117.016 76.7151 117.016Z" fill="white" fill-opacity="0.6"/>
</svg>
