<svg width="23" height="22" viewBox="0 0 23 22" fill="none" xmlns="http://www.w3.org/2000/svg">
<g clip-path="url(#clip0_4172_16942)">
<path d="M21.6991 11.0585C21.6991 10.3558 21.6311 9.63052 21.5178 8.95052H11.7031V12.9625H17.3245C17.0978 14.2545 16.3498 15.3878 15.2391 16.1132L18.5938 18.7198C20.5658 16.8838 21.6991 14.2092 21.6991 11.0585Z" fill="#4280EF"/>
<path d="M11.7035 21.2131C14.5142 21.2131 16.8715 20.2838 18.5942 18.6971L15.2395 16.1131C14.3102 16.7477 13.1088 17.1104 11.7035 17.1104C8.98349 17.1104 6.69416 15.2744 5.85549 12.8264L2.41016 15.4784C4.17816 18.9917 7.75949 21.2131 11.7035 21.2131Z" fill="#34A353"/>
<path d="M5.85502 12.8038C5.42435 11.5118 5.42435 10.1065 5.85502 8.81451L2.40969 6.13985C0.936354 9.08651 0.936354 12.5545 2.40969 15.4785L5.85502 12.8038Z" fill="#F6B704"/>
<path d="M11.7035 4.53051C13.1768 4.50785 14.6275 5.07451 15.6928 6.09451L18.6622 3.10251C16.7808 1.33451 14.2875 0.382514 11.7035 0.405181C7.75949 0.405181 4.17816 2.62651 2.41016 6.13985L5.85549 8.81451C6.69416 6.34385 8.98349 4.53051 11.7035 4.53051Z" fill="#E54335"/>
</g>
<defs>
<clipPath id="clip0_4172_16942">
<rect width="22" height="21" fill="white" transform="translate(0.5 0.455566)"/>
</clipPath>
</defs>
</svg>
