<svg width="28" height="28" viewBox="0 0 28 28" fill="none" xmlns="http://www.w3.org/2000/svg">
<circle cx="14" cy="14.0001" r="14" fill="#FFA928"/>
<path d="M13.125 18.8389V9.16139C13.125 8.24264 12.799 7.87514 11.9755 7.87514H9.89951C9.07598 7.87514 8.75 8.24264 8.75 9.16139V18.8389C8.75 19.7576 9.07598 20.1251 9.89951 20.1251H11.9755C12.799 20.1251 13.125 19.7576 13.125 18.8389Z" fill="white"/>
<path d="M20.125 18.8389V9.16139C20.125 8.24264 19.799 7.87514 18.9755 7.87514H16.8995C16.0817 7.87514 15.75 8.24264 15.75 9.16139V18.8389C15.75 19.7576 16.076 20.1251 16.8995 20.1251H18.9755C19.799 20.1251 20.125 19.7576 20.125 18.8389Z" fill="white"/>
</svg>
