<svg width="36" height="37" viewBox="0 0 36 37" fill="none" xmlns="http://www.w3.org/2000/svg">
<path d="M18 32.975C17.535 32.975 17.085 32.915 16.71 32.78C10.98 30.815 1.875 23.84 1.875 13.535C1.875 8.28499 6.12 4.02499 11.34 4.02499C13.875 4.02499 16.245 5.01499 18 6.78499C19.755 5.01499 22.125 4.02499 24.66 4.02499C29.88 4.02499 34.125 8.29999 34.125 13.535C34.125 23.855 25.02 30.815 19.29 32.78C18.915 32.915 18.465 32.975 18 32.975ZM11.34 6.27499C7.365 6.27499 4.125 9.52999 4.125 13.535C4.125 23.78 13.98 29.48 17.445 30.665C17.715 30.755 18.3 30.755 18.57 30.665C22.02 29.48 31.89 23.795 31.89 13.535C31.89 9.52999 28.65 6.27499 24.675 6.27499C22.395 6.27499 20.28 7.33999 18.915 9.18499C18.495 9.75499 17.535 9.75499 17.115 9.18499C15.72 7.32499 13.62 6.27499 11.34 6.27499Z" fill="white"/>
</svg>
