<svg width="36" height="37" viewBox="0 0 36 37" fill="none" xmlns="http://www.w3.org/2000/svg">
<path d="M30.9304 20.105C30.3604 20.105 29.8804 19.67 29.8054 19.1C29.4454 15.71 27.6154 12.635 24.7954 10.685C24.2854 10.325 24.1654 9.63503 24.5104 9.12503C24.8704 8.61503 25.5754 8.49503 26.0704 8.84003C29.4304 11.165 31.5904 14.825 32.0254 18.86C32.0854 19.475 31.6504 20.03 31.0204 20.105C31.0054 20.105 30.9604 20.105 30.9304 20.105Z" fill="white"/>
<path d="M5.23584 20.1799C5.19084 20.1799 5.16084 20.1799 5.11584 20.1799C4.50084 20.1049 4.05084 19.5499 4.11084 18.9349C4.51584 14.8999 6.66084 11.2549 9.97584 8.8999C10.4858 8.5399 11.1908 8.6599 11.5508 9.1699C11.9108 9.6799 11.7908 10.3849 11.2808 10.7449C8.49083 12.7099 6.69084 15.7849 6.34584 19.1749C6.30084 19.7449 5.80584 20.1799 5.23584 20.1799Z" fill="white"/>
<path d="M18.0899 34.415C15.8699 34.415 13.7549 33.905 11.7749 32.915C11.2199 32.63 10.9949 31.955 11.2799 31.4C11.5649 30.845 12.2399 30.62 12.7949 30.905C16.0349 32.54 19.9349 32.57 23.2049 30.995C23.7599 30.725 24.4349 30.965 24.7049 31.52C24.9749 32.075 24.7349 32.75 24.1799 33.02C22.2599 33.95 20.2199 34.415 18.0899 34.415Z" fill="white"/>
<path d="M18.0899 13.16C15.1649 13.16 12.7949 10.79 12.7949 7.86501C12.7949 4.94001 15.1649 2.57001 18.0899 2.57001C21.0149 2.57001 23.3849 4.94001 23.3849 7.86501C23.3849 10.79 20.9999 13.16 18.0899 13.16ZM18.0899 4.83501C16.4099 4.83501 15.0449 6.20001 15.0449 7.88001C15.0449 9.56001 16.4099 10.925 18.0899 10.925C19.7699 10.925 21.1349 9.56001 21.1349 7.88001C21.1349 6.20001 19.7549 4.83501 18.0899 4.83501Z" fill="white"/>
<path d="M7.24422 31.505C4.31922 31.505 1.94922 29.135 1.94922 26.21C1.94922 23.3 4.31922 20.915 7.24422 20.915C10.1692 20.915 12.5392 23.285 12.5392 26.21C12.5392 29.12 10.1692 31.505 7.24422 31.505ZM7.24422 23.165C5.56422 23.165 4.19922 24.53 4.19922 26.21C4.19922 27.89 5.56422 29.255 7.24422 29.255C8.92422 29.255 10.2892 27.89 10.2892 26.21C10.2892 24.53 8.92422 23.165 7.24422 23.165Z" fill="white"/>
<path d="M28.7559 31.505C25.8309 31.505 23.4609 29.135 23.4609 26.21C23.4609 23.3 25.8309 20.915 28.7559 20.915C31.6809 20.915 34.0509 23.285 34.0509 26.21C34.0359 29.12 31.6659 31.505 28.7559 31.505ZM28.7559 23.165C27.0759 23.165 25.7109 24.53 25.7109 26.21C25.7109 27.89 27.0759 29.255 28.7559 29.255C30.4359 29.255 31.8009 27.89 31.8009 26.21C31.7859 24.53 30.4359 23.165 28.7559 23.165Z" fill="white"/>
</svg>
